<svg width="48" height="60" viewBox="0 0 48 60" fill="none" xmlns="http://www.w3.org/2000/svg">
<path d="M29.8332 0.835938H6.49984C4.95274 0.835938 3.46901 1.45052 2.37505 2.54448C1.28109 3.63844 0.666504 5.12218 0.666504 6.66927V53.3359C0.666504 54.883 1.28109 56.3668 2.37505 57.4607C3.46901 58.5547 4.95274 59.1693 6.49984 59.1693H41.4998C43.0469 59.1693 44.5307 58.5547 45.6246 57.4607C46.7186 56.3668 47.3332 54.883 47.3332 53.3359V18.3359L29.8332 0.835938ZM16.7023 42.2234C15.8011 43.0693 14.4711 43.4484 12.9223 43.4484C12.622 43.4517 12.3219 43.4342 12.024 43.3959V47.5551H9.4165V36.0751C10.5932 35.8996 11.7823 35.8196 12.9719 35.8359C14.5965 35.8359 15.7515 36.1451 16.5303 36.7664C17.2711 37.3555 17.7728 38.3209 17.7728 39.4584C17.7698 40.6018 17.3907 41.5672 16.7023 42.2234ZM27.8061 46.1755C26.5811 47.1934 24.7173 47.6776 22.4394 47.6776C21.0744 47.6776 20.109 47.5901 19.4528 47.5026V36.078C20.6299 35.9062 21.8186 35.8253 23.0082 35.8359C25.2161 35.8359 26.6511 36.2326 27.7711 37.0784C28.9815 37.9768 29.7398 39.4089 29.7398 41.4651C29.7398 43.6905 28.9261 45.2276 27.8061 46.1755ZM38.5832 38.0818H34.1148V40.7389H38.2915V42.8797H34.1148V47.558H31.4723V35.9234H38.5832V38.0818ZM29.8332 21.2526H26.9165V6.66927L41.4998 21.2526H29.8332Z" fill="#6B6B6B"/>
</svg>
