<svg width="137" height="137" viewBox="0 0 137 137" fill="none" xmlns="http://www.w3.org/2000/svg">
<path d="M68.5 0.6875C31.0518 0.6875 0.6875 31.0518 0.6875 68.5C0.6875 105.948 31.0518 136.312 68.5 136.312C105.948 136.312 136.312 105.948 136.312 68.5C136.312 31.0518 105.948 0.6875 68.5 0.6875ZM90.312 69.5444L57.2534 93.5967C57.0722 93.7269 56.8586 93.8047 56.636 93.8214C56.4135 93.8381 56.1906 93.7932 55.9919 93.6915C55.7933 93.5898 55.6265 93.4353 55.5099 93.245C55.3933 93.0547 55.3314 92.836 55.3311 92.6128V44.5386C55.3303 44.315 55.3915 44.0955 55.5079 43.9045C55.6242 43.7136 55.7912 43.5585 55.9903 43.4566C56.1893 43.3548 56.4127 43.31 56.6357 43.3273C56.8586 43.3446 57.0725 43.4233 57.2534 43.5547L90.312 67.5918C90.4682 67.7022 90.5956 67.8486 90.6835 68.0184C90.7715 68.1883 90.8173 68.3768 90.8173 68.5681C90.8173 68.7594 90.7715 68.9479 90.6835 69.1178C90.5956 69.2877 90.4682 69.434 90.312 69.5444Z" fill="white" fill-opacity="0.6"/>
</svg>
