<svg width="22" height="19" viewBox="0 0 22 19" fill="none" xmlns="http://www.w3.org/2000/svg">
<path d="M14.6004 4.20156C14.6004 5.15634 14.2211 6.07202 13.546 6.74715C12.8708 7.42228 11.9552 7.80156 11.0004 7.80156C10.0456 7.80156 9.12994 7.42228 8.45481 6.74715C7.77968 6.07202 7.40039 5.15634 7.40039 4.20156C7.40039 3.24678 7.77968 2.33111 8.45481 1.65598C9.12994 0.980847 10.0456 0.601563 11.0004 0.601562C11.9552 0.601563 12.8708 0.980847 13.546 1.65598C14.2211 2.33111 14.6004 3.24678 14.6004 4.20156Z" fill="white"/>
<path d="M20.6008 6.60312C20.6008 7.23964 20.3479 7.85009 19.8978 8.30018C19.4477 8.75027 18.8373 9.00312 18.2008 9.00312C17.5643 9.00312 16.9538 8.75027 16.5037 8.30018C16.0536 7.85009 15.8008 7.23964 15.8008 6.60312C15.8008 5.96661 16.0536 5.35616 16.5037 4.90607C16.9538 4.45598 17.5643 4.20313 18.2008 4.20312C18.8373 4.20313 19.4477 4.45598 19.8978 4.90607C20.3479 5.35616 20.6008 5.96661 20.6008 6.60312Z" fill="white"/>
<path d="M15.8002 15.0031C15.8002 13.7301 15.2945 12.5092 14.3943 11.609C13.4941 10.7088 12.2732 10.2031 11.0002 10.2031C9.72716 10.2031 8.50626 10.7088 7.60608 11.609C6.70591 12.5092 6.2002 13.7301 6.2002 15.0031V18.6031H15.8002V15.0031Z" fill="white"/>
<path d="M6.20039 6.60312C6.20039 7.23964 5.94753 7.85009 5.49745 8.30018C5.04736 8.75027 4.43691 9.00312 3.80039 9.00312C3.16387 9.00312 2.55342 8.75027 2.10333 8.30018C1.65325 7.85009 1.40039 7.23964 1.40039 6.60312C1.40039 5.96661 1.65325 5.35616 2.10333 4.90607C2.55342 4.45598 3.16387 4.20313 3.80039 4.20312C4.43691 4.20313 5.04736 4.45598 5.49745 4.90607C5.94753 5.35616 6.20039 5.96661 6.20039 6.60312Z" fill="white"/>
<path d="M18.2008 18.5982V14.9982C18.2025 13.7782 17.8927 12.5779 17.3008 11.511C17.8328 11.3749 18.3889 11.362 18.9266 11.4735C19.4643 11.5849 19.9695 11.8177 20.4036 12.1541C20.8377 12.4905 21.1892 12.9216 21.4313 13.4145C21.6735 13.9074 21.7998 14.4491 21.8008 14.9982V18.5982H18.2008Z" fill="white"/>
<path d="M4.7002 11.5128C4.10829 12.5796 3.79851 13.7799 3.8002 15V18.6H0.200196V15C0.199964 14.4504 0.325551 13.9081 0.567332 13.4146C0.809112 12.9211 1.16067 12.4895 1.59506 12.1529C2.02944 11.8162 2.53513 11.5835 3.07337 11.4726C3.6116 11.3616 4.16809 11.3754 4.7002 11.5128Z" fill="white"/>
</svg>
