<svg width="22" height="22" viewBox="0 0 22 22" fill="none" xmlns="http://www.w3.org/2000/svg">
<path d="M19.0077 0.140625H2.92532C1.34923 0.140625 0.0673828 1.42281 0.0673828 2.99925V19.0799C0.0673828 20.6563 1.34923 21.9388 2.92532 21.9388H19.0077C20.5834 21.9388 21.8656 20.6563 21.8656 19.0799V2.99925C21.8656 1.42281 20.5834 0.140625 19.0077 0.140625ZM15.3539 3.03809C15.7087 3.03809 16.049 3.17899 16.3 3.42981C16.5509 3.68062 16.692 4.02083 16.6922 4.37562C16.6922 5.11434 16.2195 5.71384 15.3539 5.71384C15.1757 5.71788 14.9984 5.68627 14.8326 5.62085C14.6667 5.55543 14.5156 5.45753 14.3881 5.33289C14.2606 5.20826 14.1593 5.05941 14.0902 4.89508C14.021 4.73075 13.9854 4.55426 13.9854 4.37597C13.9854 4.19768 14.021 4.02119 14.0902 3.85686C14.1593 3.69253 14.2606 3.54367 14.3881 3.41904C14.5156 3.29441 14.6667 3.19651 14.8326 3.13109C14.9984 3.06567 15.1757 3.03405 15.3539 3.03809ZM12.4592 7.24112C12.5833 6.80834 13.1302 6.04144 14.0776 6.04144H16.6293C17.577 6.04144 18.1246 6.80834 18.2476 7.24112L19.1795 10.3758H18.0201L17.3377 8.01319H16.8888L17.5467 10.3758H13.1601L13.8177 8.01319H13.3691L12.6878 10.3758H11.5284L12.4592 7.24112ZM6.44566 3.02572C6.62149 3.02572 6.7956 3.06035 6.95804 3.12764C7.12049 3.19492 7.26809 3.29355 7.39241 3.41788C7.51674 3.5422 7.61537 3.6898 7.68265 3.85225C7.74994 4.01469 7.78457 4.1888 7.78457 4.36462C7.78457 4.54045 7.74994 4.71456 7.68265 4.877C7.61537 5.03945 7.51674 5.18705 7.39241 5.31137C7.26809 5.4357 7.12049 5.53433 6.95804 5.60161C6.7956 5.6689 6.62149 5.70353 6.44566 5.70353C6.09056 5.70353 5.75001 5.56247 5.49891 5.31137C5.24782 5.06028 5.10676 4.71972 5.10676 4.36462C5.10676 4.00952 5.24782 3.66897 5.49891 3.41788C5.75001 3.16678 6.09056 3.02572 6.44566 3.02572ZM6.46629 9.61747C6.42435 9.54356 6.29648 9.23556 6.19301 8.98291L5.30785 12.7202L5.30923 18.5099C5.31095 19.0857 4.91735 19.5549 4.34191 19.5567C3.76613 19.5591 3.34985 19.0943 3.34538 18.5178L3.33988 11.6834C3.33988 11.3617 3.46707 10.5982 3.54098 10.3163L4.37113 6.81728C4.5162 6.20678 5.12945 5.82316 5.73788 5.97337C5.93873 6.0197 6.12543 6.11384 6.28211 6.24777C6.43878 6.38171 6.56081 6.55149 6.63782 6.74269C6.7626 7.05378 7.31845 8.46041 7.44838 8.75156C7.4941 8.85194 7.59035 8.90522 7.60995 8.91416C7.71995 8.96331 7.99357 9.05887 8.49029 9.28265L8.77045 9.40881L8.52741 8.94406L8.13657 8.19847C8.13657 8.19847 8.08466 8.06853 8.19982 8.01284C8.32804 7.95062 8.39748 8.05547 8.39748 8.05547L9.57551 10.2517C9.57551 10.2517 9.67313 10.4658 9.61745 10.6429C9.4222 10.6322 9.29054 10.3998 9.29054 10.3998L9.26923 10.3589L9.20735 10.4872C9.12265 10.5949 9.00572 10.6728 8.87363 10.7094C8.74153 10.746 8.6012 10.7395 8.4731 10.6907C8.02485 10.4861 6.86607 10.0066 6.86607 10.0066C6.66498 9.91206 6.56666 9.79209 6.46663 9.61781L6.46629 9.61747ZM10.6563 10.3063L10.9952 10.67L8.38751 13.0972L8.04857 12.7339L10.6566 10.3063H10.6563ZM19.2311 12.044H11.8474C11.5954 12.044 11.4593 12.186 11.3792 12.2606C11.054 12.5627 8.88904 14.5609 8.88904 14.5609L8.23866 13.9195C8.23866 13.9195 10.6755 11.5552 10.9794 11.2723C11.1557 11.1097 11.3675 11.022 11.5909 11.022H19.2314V12.0443L19.2311 12.044Z" fill="white"/>
</svg>
