<svg width="250" height="171" viewBox="0 0 250 171" fill="none" xmlns="http://www.w3.org/2000/svg">
<path d="M97.1694 58.4H136.769V56.6H97.5694L112.569 0.199994L110.769 -3.8147e-06L95.7694 56.6H54.9694L69.9694 0.199994L68.1694 -3.8147e-06L53.1694 56.6H0.169385V58.4H52.7694C50.3694 67.2 47.9694 76.2 45.5694 85.4C42.9694 94.6 40.5694 103.4 38.3694 112.2H0.169385V113.8H37.9694L22.7694 170.8L24.5694 171C26.7694 162.2 29.1694 152.6 31.9694 142.4C34.7694 132.4 37.3694 122.8 39.7694 113.8H80.5694L65.1694 170.8L66.9694 171C69.1694 162.2 71.7694 152.6 74.5694 142.4C77.3694 132.4 79.9694 122.8 82.3694 113.8H136.769V112.2H82.7694C84.9694 103.4 87.3694 94.6 89.9694 85.4C92.3694 76.2 94.7694 67.2 97.1694 58.4ZM249.913 169.4H153.913C153.913 163.8 154.313 158.6 155.113 154.2C155.913 149.8 157.113 145.8 159.113 142.2C160.913 138.6 163.313 135.4 166.313 132.4C169.313 129.6 173.113 126.6 177.513 123.6L226.313 92.4C233.113 88 238.513 82 242.913 74.4C247.113 66.8 249.313 58.6 249.313 49.8C249.313 43 247.913 36.6 245.313 30.6C242.713 24.6 239.113 19.2 234.713 14.8C230.313 10.4 225.113 6.79999 219.113 4.19999C213.113 1.59999 206.713 0.199994 199.913 0.199994C194.313 0.199994 188.913 1.19999 183.913 2.99999C178.713 4.79999 174.113 7.19999 169.913 10.4C165.713 13.6 162.113 17.4 159.113 21.8C155.913 26.2 153.713 31 152.113 36.2L153.913 36.6C155.313 31.8 157.513 27.2 160.513 22.8C163.313 18.6 166.913 15 170.913 11.8C174.913 8.59999 179.513 6.19999 184.313 4.39999C189.113 2.8 194.313 1.8 199.913 1.8C207.913 1.8 215.313 3.79999 222.313 7.59999C229.113 11.4 234.713 16.2 238.913 22.2C241.313 26.2 242.713 30.4 242.713 34.6C242.713 38.2 241.513 42 239.513 45.6C237.313 49.2 234.313 52.4 230.713 55.2L172.313 92.4C169.913 94 167.513 96 164.713 98.8C160.713 103 157.513 107.6 155.513 112.8C153.313 118 152.313 123.4 152.313 129V171H249.913V169.4Z" fill="white" fill-opacity="0.33"/>
</svg>
