<svg width="241" height="171" viewBox="0 0 241 171" fill="none" xmlns="http://www.w3.org/2000/svg">
<path d="M97.8 58.4H137.4V56.6H98.2L113.2 0.199994L111.4 -3.8147e-06L96.4 56.6H55.6L70.6 0.199994L68.8 -3.8147e-06L53.8 56.6H0.8V58.4H53.4C51 67.2 48.6 76.2 46.2 85.4C43.6 94.6 41.2 103.4 39 112.2H0.8V113.8H38.6L23.4 170.8L25.2 171C27.4 162.2 29.8 152.6 32.6 142.4C35.4 132.4 38 122.8 40.4 113.8H81.2L65.8 170.8L67.6 171C69.8 162.2 72.4 152.6 75.2 142.4C78 132.4 80.6 122.8 83 113.8H137.4V112.2H83.4C85.6 103.4 88 94.6 90.6 85.4C93 76.2 95.4 67.2 97.8 58.4ZM212.744 78.6C211.344 78 209.944 77.4 208.344 76.8C206.744 76.4 205.144 75.8 203.544 75.4C201.944 75 201.744 74.6 202.544 74.2C206.544 73.2 210.144 71.6 213.744 69.2C217.144 66.8 220.144 64 222.744 60.8C225.344 57.6 227.344 54.2 228.944 50.2C230.344 46.2 231.144 42.2 231.144 37.8C231.144 32.6 230.144 27.8 228.144 23.2C226.144 18.8 223.344 14.8 219.944 11.4C216.544 7.99999 212.544 5.19999 207.944 3.19999C203.344 1.19999 198.544 0.199994 193.344 0.199994C189.344 0.199994 185.344 0.999995 181.744 2.19999C178.144 3.39999 174.744 5.19999 171.744 7.4C168.544 9.59999 165.944 12.2 163.544 15.2C161.144 18.2 159.144 21.4 157.944 25L159.744 25.4C160.944 22.2 162.744 19 164.944 16C167.144 13.2 169.744 10.6 172.744 8.59999C175.544 6.59999 178.744 4.79999 182.344 3.6C185.744 2.39999 189.344 1.8 193.344 1.8C195.144 1.8 196.944 1.99999 198.944 2.39999C200.944 2.8 202.744 3.19999 204.744 3.79999C206.944 4.99999 208.544 6.59999 209.544 8.99999C210.344 11.4 210.944 14 210.944 17V58.8C210.544 64 208.944 67.8 205.944 70.2C202.744 72.6 198.544 73.8 193.344 73.8H183.144V75.4H191.544C194.344 75.4 196.944 75.8 199.344 76.2C201.744 76.8 203.944 77.8 205.744 79.4C207.344 81 208.744 83.4 209.744 86.4C210.544 89.4 211.144 93.2 211.144 98V153.8C211.144 159 210.344 162.4 208.944 164C207.544 165.8 205.944 167 203.944 167.6C199.944 168.8 195.744 169.4 191.544 169.4C186.144 169.4 181.144 168.6 176.344 166.8C171.544 165.2 167.144 162.8 163.144 159.8C159.144 156.8 155.744 153.2 152.944 149C150.144 145 147.944 140.4 146.744 135.6L144.944 135.8C146.344 141 148.544 145.6 151.544 149.8C154.544 154.2 158.144 157.8 162.144 161C166.144 164.2 170.744 166.6 175.744 168.4C180.744 170.2 185.944 171 191.544 171C198.144 171 204.344 169.8 210.344 167.2C216.344 164.8 221.544 161.2 225.944 156.8C230.344 152.4 233.744 147.4 236.344 141.4C238.744 135.6 240.144 129.2 240.144 122.4C240.144 112.8 237.544 104.2 232.544 96.4C227.544 88.6 220.944 82.6 212.744 78.6Z" fill="white" fill-opacity="0.33"/>
</svg>
