<svg width="203" height="171" viewBox="0 0 203 171" fill="none" xmlns="http://www.w3.org/2000/svg">
<path d="M97.8 58.4H137.4V56.6H98.2L113.2 0.199994L111.4 -3.8147e-06L96.4 56.6H55.6L70.6 0.199994L68.8 -3.8147e-06L53.8 56.6H0.8V58.4H53.4C51 67.2 48.6 76.2 46.2 85.4C43.6 94.6 41.2 103.4 39 112.2H0.8V113.8H38.6L23.4 170.8L25.2 171C27.4 162.2 29.8 152.6 32.6 142.4C35.4 132.4 38 122.8 40.4 113.8H81.2L65.8 170.8L67.6 171C69.8 162.2 72.4 152.6 75.2 142.4C78 132.4 80.6 122.8 83 113.8H137.4V112.2H83.4C85.6 103.4 88 94.6 90.6 85.4C93 76.2 95.4 67.2 97.8 58.4ZM165.344 8.4V134.4C165.344 137.4 165.144 140.8 165.144 144.8C165.144 148.8 164.744 152.8 164.344 156.4C163.744 160 162.944 163.2 161.744 165.6C160.544 168.2 158.744 169.4 156.744 169.4V171H202.944V169.4C200.544 169.2 198.944 167.8 197.744 165.2C196.544 162.6 195.744 159.4 195.344 155.8C194.744 152.2 194.344 148.6 194.344 144.6C194.344 140.8 194.344 137.4 194.344 134.4V0.199994L152.944 4.99999V6.59999L162.144 5.6C163.144 5.6 163.944 5.6 164.344 5.99999C164.744 6.4 165.144 7.19999 165.344 8.4Z" fill="white" fill-opacity="0.33"/>
</svg>
