<svg width="260" height="171" viewBox="0 0 260 171" fill="none" xmlns="http://www.w3.org/2000/svg">
<path d="M97.1694 58.4H136.769V56.6H97.5694L112.569 0.199994L110.769 -3.8147e-06L95.7694 56.6H54.9694L69.9694 0.199994L68.1694 -3.8147e-06L53.1694 56.6H0.169385V58.4H52.7694C50.3694 67.2 47.9694 76.2 45.5694 85.4C42.9694 94.6 40.5694 103.4 38.3694 112.2H0.169385V113.8H37.9694L22.7694 170.8L24.5694 171C26.7694 162.2 29.1694 152.6 31.9694 142.4C34.7694 132.4 37.3694 122.8 39.7694 113.8H80.5694L65.1694 170.8L66.9694 171C69.1694 162.2 71.7694 152.6 74.5694 142.4C77.3694 132.4 79.9694 122.8 82.3694 113.8H136.769V112.2H82.7694C84.9694 103.4 87.3694 94.6 89.9694 85.4C92.3694 76.2 94.7694 67.2 97.1694 58.4ZM239.513 129.4V36.8C239.513 34 239.513 30.4 239.513 26.4C239.513 22.4 239.913 18.6 240.513 15C240.913 11.4 241.713 8.2 242.913 5.6C244.113 3.19999 245.713 1.8 248.113 1.8V0.199994H201.913V1.8C203.913 2.19999 205.713 3.6 206.913 6.19999C208.113 8.79999 208.913 11.8 209.513 15.4C209.913 19 210.313 22.8 210.313 26.8C210.313 30.8 210.513 34 210.513 36.8V129.4H146.913L187.513 0.599988L185.513 0.199994L144.313 131.2H210.513V142.8C210.513 145.8 210.313 148.8 210.113 152C209.713 155.2 209.313 158 208.713 160.6C208.113 163.2 207.313 165.4 206.113 167C204.913 168.6 203.513 169.4 201.913 169.4V171H248.113V169.4C245.713 169.2 244.113 167.8 242.913 165.2C241.713 162.6 240.913 159.4 240.513 155.8C239.913 152.2 239.513 148.6 239.513 144.6C239.513 140.8 239.513 137.4 239.513 134.4V131.2H259.913V129.4H239.513Z" fill="white" fill-opacity="0.33"/>
</svg>
