<svg width="183" height="183" viewBox="0 0 183 183" fill="none" xmlns="http://www.w3.org/2000/svg">
<ellipse cx="91.1083" cy="91.5" rx="91.1083" ry="91.5" fill="white"/>
<path d="M101.029 76.6576C95.4991 73.4675 86.5666 73.4675 81.0697 76.6576C75.5728 79.8478 75.6056 85.0339 81.1352 88.224C86.6648 91.4142 95.5973 91.4142 101.094 88.224C106.591 85.0175 106.558 79.8478 101.029 76.6576ZM98.493 81.6801C98.0185 81.8273 97.5441 81.9909 97.0696 82.1382C96.7752 82.22 96.5952 82.2363 96.4643 82.1709C96.3989 82.1218 96.3335 82.0564 96.268 81.9582C95.9572 81.4511 95.4827 81.0093 94.8447 80.6494C94.7629 80.6003 94.6648 80.5513 94.5666 80.5022C94.3539 80.3877 94.1576 80.3059 93.8958 80.2404C92.9797 80.0278 92.1617 80.3713 92.2762 80.9439C92.3253 81.2384 92.4889 81.5001 92.6852 81.7783C93.0124 82.2363 93.3723 82.6944 93.6014 83.1852C94.3703 84.723 92.7016 86.2445 90.0186 86.3917C89.0533 86.4408 88.1372 86.3263 87.2865 86.0482C86.9102 85.9336 86.6321 85.9336 86.354 86.13C86.0759 86.3099 85.765 86.4735 85.4705 86.6371C85.2088 86.7844 84.9307 86.8007 84.6689 86.6535C84.4726 86.5553 84.2926 86.4408 84.0963 86.3426C83.9654 86.2608 83.8346 86.1954 83.7037 86.1136C83.4256 85.95 83.4583 85.7864 83.72 85.6228C83.9327 85.4919 84.1454 85.3774 84.3417 85.2465C84.8161 84.9684 84.8161 84.9521 84.4235 84.6412C83.9327 84.2486 83.491 83.8396 83.2129 83.3815C83.0002 83.0216 83.0493 82.9398 83.6219 82.7435C84.0472 82.6126 84.4562 82.4654 84.8816 82.3345C85.1924 82.2363 85.3724 82.22 85.5033 82.2854C85.5851 82.3345 85.6341 82.3999 85.6996 82.5144C85.9777 83.038 86.4521 83.496 87.0247 83.9377C87.1229 84.0195 87.2374 84.085 87.3356 84.1504C87.6464 84.3304 88.0063 84.4613 88.4153 84.5594C89.4787 84.8048 90.4276 84.3795 90.3294 83.7087C90.2967 83.4797 90.1822 83.2834 90.0349 83.0707C89.675 82.5308 89.2006 82.0236 88.9552 81.4511C88.5625 80.5349 88.7425 79.7006 90.0022 79.0462C91.4419 78.31 93.0451 78.2609 94.7466 78.719C95.45 78.9153 95.4337 78.9153 95.9735 78.6044C96.1535 78.4899 96.3335 78.3918 96.5134 78.2936C96.9224 78.0646 97.0696 78.0646 97.4786 78.2936C97.6095 78.3591 97.724 78.4408 97.8549 78.5063C98.722 78.9971 98.722 78.9971 97.8713 79.5042C97.266 79.8478 97.266 79.8478 97.7731 80.2568C98.1658 80.5676 98.4766 80.8948 98.7056 81.2547C98.8856 81.4347 98.8201 81.5819 98.493 81.6801ZM108.407 92.4449C106.886 93.3283 104.415 93.3283 102.877 92.4449C101.356 91.5614 101.34 90.1218 102.861 89.2383C104.382 88.3549 106.853 88.3549 108.391 89.2383C109.928 90.1218 109.945 91.5614 108.407 92.4449ZM79.2865 75.627C77.7651 76.5104 75.2947 76.5104 73.7569 75.627C72.2191 74.7435 72.2191 73.3039 73.7405 72.4204C75.262 71.537 77.7323 71.537 79.2702 72.4204C80.7916 73.3039 80.808 74.7435 79.2865 75.627ZM129.102 85.5901L85.5033 60.4123C82.9838 58.9563 78.8939 58.9563 76.3908 60.4123L53.0127 73.991C50.5096 75.447 50.526 77.8192 53.0454 79.2752L96.6443 104.453C99.1637 105.909 103.254 105.909 105.757 104.453L129.119 90.8743C131.638 89.4183 131.622 87.0461 129.102 85.5901ZM106.231 99.6595C105.953 99.3978 105.626 99.1524 105.233 98.9233C102.681 97.451 98.542 97.451 96.0063 98.9233C95.8099 99.0379 95.6463 99.1524 95.4664 99.2833L61.6179 79.7333C61.9451 79.6024 62.256 79.4552 62.5504 79.2916C65.0862 77.8192 65.0698 75.4306 62.5177 73.9583C62.2396 73.7947 61.9451 73.6474 61.6343 73.5329L75.5892 65.4184C75.8019 65.5984 76.0473 65.762 76.3254 65.9256C78.8775 67.398 83.0166 67.398 85.5523 65.9256C85.8468 65.762 86.0922 65.582 86.3212 65.3857L120.284 84.9848C119.826 85.1484 119.417 85.3283 119.025 85.5574C116.489 87.0298 116.489 89.4346 119.057 90.907C119.45 91.1361 119.892 91.316 120.35 91.4796L106.231 99.6595ZM51.9002 84.314C53.0127 83.7414 54.7304 83.8232 55.7938 84.4449L101.372 110.751L126.01 96.4203C127.074 95.7986 128.824 95.7986 129.904 96.4203C130.984 97.042 130.984 98.0563 129.92 98.6779L103.728 113.893C102.452 114.645 100.358 114.645 99.0655 113.893L98.1494 113.369L97.5114 112.993L51.8184 86.6208C50.7059 85.9827 50.7223 84.9193 51.9002 84.314ZM129.953 106.907L103.761 122.122C102.485 122.874 100.391 122.874 99.0983 122.122L98.1985 121.598L97.5441 121.222L51.8511 94.8497C50.7386 94.2117 50.7714 93.1483 51.9493 92.543C53.0454 91.9704 54.7795 92.0522 55.8429 92.6739L101.405 118.98L126.043 104.666C127.123 104.044 128.857 104.044 129.937 104.666C131.016 105.271 131.033 106.285 129.953 106.907Z" fill="#5CC6D5"/>
</svg>
