<svg width="183" height="183" viewBox="0 0 183 183" fill="none" xmlns="http://www.w3.org/2000/svg">
<ellipse cx="91.1083" cy="91.5" rx="91.1083" ry="91.5" fill="white"/>
<path d="M73.441 96.8516H66.5068C65.6793 96.8516 65.0173 97.5135 65.0173 98.341V101.221V113.897V116.777C65.0173 117.605 65.6793 118.267 66.5068 118.267H73.441C74.2685 118.267 74.9304 117.605 74.9304 116.777V113.897V101.221V98.341C74.947 97.5135 74.2685 96.8516 73.441 96.8516Z" fill="#5CC6D5"/>
<path d="M87.4583 88.5547H80.5241C79.6966 88.5547 79.0347 89.2167 79.0347 90.0441V101.215V105.584V116.755C79.0347 117.582 79.6966 118.244 80.5241 118.244H87.4583C88.2858 118.244 88.9478 117.582 88.9478 116.755V105.584V101.215V90.0441C88.9478 89.2167 88.2858 88.5547 87.4583 88.5547Z" fill="#5CC6D5"/>
<path d="M102.965 92.9762V80.6303H107.765C108.642 80.6303 109.188 79.6539 108.725 78.9092L98.9603 63.2368C98.5135 62.5252 97.4875 62.5252 97.0406 63.2368L87.2764 78.9092C86.8131 79.6539 87.3426 80.6303 88.2363 80.6303H93.0356V116.774C93.0356 117.602 93.6976 118.264 94.5251 118.264H101.459C102.287 118.264 102.949 117.602 102.949 116.774C100.168 113.58 98.4639 109.426 98.4639 104.859C98.497 100.324 100.185 96.1537 102.965 92.9762Z" fill="#5CC6D5"/>
<path d="M116.602 90.4922C108.658 90.4922 102.204 96.9299 102.204 104.89C102.204 112.834 108.642 119.288 116.602 119.288C124.546 119.288 131 112.851 131 104.89C131 96.9299 124.562 90.4922 116.602 90.4922ZM120.739 110.55C120.11 111.311 119.299 111.824 118.34 112.089C117.926 112.205 117.744 112.42 117.76 112.851C117.777 113.281 117.76 113.695 117.76 114.125C117.76 114.505 117.562 114.704 117.198 114.721C116.734 114.737 116.287 114.737 115.824 114.721C115.427 114.721 115.228 114.489 115.228 114.092C115.228 113.777 115.228 113.463 115.212 113.165C115.212 112.486 115.179 112.453 114.517 112.354C113.673 112.222 112.845 112.023 112.067 111.659C111.455 111.361 111.405 111.212 111.571 110.583C111.703 110.103 111.836 109.64 111.985 109.177C112.15 108.63 112.299 108.564 112.795 108.829C113.656 109.276 114.55 109.524 115.51 109.64C116.122 109.723 116.718 109.656 117.28 109.408C118.34 108.945 118.505 107.72 117.611 106.975C117.313 106.727 116.966 106.545 116.602 106.38C115.675 105.966 114.699 105.668 113.838 105.138C112.415 104.294 111.521 103.119 111.62 101.382C111.736 99.4289 112.845 98.2042 114.632 97.5588C115.377 97.294 115.377 97.294 115.377 96.5327C115.377 96.2679 115.377 96.0032 115.377 95.7549C115.394 95.1757 115.493 95.0764 116.072 95.0598C116.254 95.0598 116.436 95.0598 116.618 95.0598C117.86 95.0598 117.86 95.0598 117.86 96.301C117.86 97.1782 117.86 97.1782 118.737 97.3106C119.399 97.4099 120.044 97.6085 120.656 97.8898C121.004 98.0387 121.12 98.2704 121.021 98.6345C120.872 99.1641 120.723 99.7102 120.557 100.24C120.392 100.736 120.243 100.819 119.763 100.587C118.803 100.124 117.793 99.9254 116.718 99.9916C116.436 100.008 116.172 100.041 115.907 100.157C114.98 100.554 114.831 101.58 115.625 102.209C116.023 102.524 116.469 102.755 116.949 102.954C117.76 103.285 118.588 103.616 119.366 104.046C121.815 105.337 122.477 108.448 120.739 110.55Z" fill="#5CC6D5"/>
<path d="M59.4237 106.859H52.4894C51.662 106.859 51 107.521 51 108.349V108.63V111.228V113.893V114.886V116.772C51 117.6 51.662 118.262 52.4894 118.262H59.4237C60.2511 118.262 60.9131 117.6 60.9131 116.772V114.886V113.893V111.228V108.994V108.349C60.9297 107.521 60.2511 106.859 59.4237 106.859Z" fill="#5CC6D5"/>
</svg>
