<svg width="183" height="183" viewBox="0 0 183 183" fill="none" xmlns="http://www.w3.org/2000/svg">
<ellipse cx="91.1083" cy="91.5" rx="91.1083" ry="91.5" fill="white"/>
<path d="M79.1069 93.8406C79.5833 92.0008 80.5525 90.3088 81.9488 88.8139C79.6161 87.3027 77.6613 85.2328 76.3143 82.8016H80.766C81.3574 84.7072 82.113 86.3827 82.9344 87.8447C83.5094 87.3191 84.1336 86.8427 84.7907 86.432C85.1028 86.2185 85.4149 86.0213 85.727 85.8406C85.2178 84.9207 84.7578 83.9022 84.3471 82.8016H89.3738V84.5922C89.6695 84.5429 89.9652 84.51 90.2609 84.51C90.6059 84.4772 90.9508 84.4608 91.2794 84.4608C91.7886 84.4608 92.2814 84.4936 92.7578 84.5593V82.8181H97.8009C97.4231 83.8858 96.9632 84.8714 96.4868 85.7585C96.5853 85.8078 96.6675 85.8571 96.766 85.9063C97.8502 86.5142 98.6551 87.2205 99.2137 87.8283C100.035 86.3663 100.791 84.6907 101.366 82.8016H105.817C104.503 85.1671 102.647 87.1712 100.396 88.6661C100.84 88.9946 101.267 89.3889 101.661 89.8817C102.466 90.9002 102.992 92.1815 103.255 93.7092C109.546 89.6846 113.719 82.6374 113.719 74.6374C113.719 62.1528 103.567 51.9844 91.0658 51.9844C78.5812 51.9844 68.4128 62.1363 68.4128 74.6374C68.4128 82.7195 72.7003 89.8489 79.1069 93.8406ZM107.247 69.8406C107.69 71.3519 107.936 72.9618 107.936 74.6209C107.936 76.2801 107.69 77.8899 107.247 79.4012H102.171C102.417 77.9063 102.565 76.3293 102.565 74.6209C102.565 72.9125 102.417 71.3191 102.171 69.8406H107.247ZM105.834 66.4402H101.382C100.462 63.4669 99.1315 61.0357 97.7517 59.1137C101.185 60.6086 104.027 63.2041 105.834 66.4402ZM92.7578 58.4895C94.4005 60.1486 96.4375 62.7606 97.7845 66.4567H92.7578V58.4895ZM92.7578 69.8406H98.7044C98.9837 71.3027 99.1644 72.8961 99.1644 74.6209C99.1644 76.3458 99.0001 77.9392 98.7209 79.4012H92.7578V69.8406ZM89.3738 79.4176H83.4272C83.148 77.9556 82.9673 76.3622 82.9673 74.6374C82.9673 72.9125 83.1315 71.3191 83.4108 69.8571H89.3738V79.4176ZM89.3738 66.4402H84.3307C85.6613 62.7277 87.7311 60.0994 89.3738 58.4567V66.4402ZM84.38 59.1302C83.0001 61.0521 81.6695 63.4833 80.7496 66.4567H76.2979C78.1048 63.2041 80.9467 60.6086 84.38 59.1302ZM74.1788 74.6209C74.1788 72.9618 74.4252 71.3519 74.8687 69.8406H79.9447C79.6983 71.3355 79.5504 72.9125 79.5504 74.6209C79.5504 76.3293 79.6983 77.9228 79.9447 79.4012H74.8687C74.4252 77.8899 74.1788 76.2801 74.1788 74.6209Z" fill="#5CC6D5"/>
<path d="M127.09 118.681C123.312 117.235 121.062 115.773 121.062 115.773L118.154 124.972L117.76 126.221L116.462 122.525C119.452 118.352 116.232 118.155 115.674 118.155C115.674 118.155 115.674 118.155 115.657 118.155C115.657 118.155 115.657 118.155 115.641 118.155C115.641 118.155 115.641 118.155 115.624 118.155C115.624 118.155 115.624 118.155 115.608 118.155C115.049 118.155 111.83 118.352 114.819 122.525L113.522 126.221L113.127 124.972L110.22 115.773C110.22 115.773 108.955 116.594 106.721 117.629C106.162 117.202 105.489 116.841 104.667 116.529C100.183 114.82 97.4887 113.062 97.4887 113.062L94.0226 124.003L93.5462 125.481L92.0021 121.095C95.5667 116.134 91.7392 115.888 91.0657 115.888C91.0657 115.888 91.0657 115.888 91.0493 115.888C91.0493 115.888 91.0493 115.888 91.0329 115.888C91.0329 115.888 91.0329 115.888 91.0164 115.888C91.0164 115.888 91.0164 115.888 91 115.888C90.3429 115.888 86.499 116.134 90.0637 121.095L88.5195 125.481L88.0431 124.003L84.577 113.062C84.577 113.062 81.883 114.82 77.3984 116.529C76.577 116.824 75.9035 117.186 75.345 117.629C73.1109 116.611 71.846 115.773 71.846 115.773L68.9384 124.972L68.5441 126.221L67.2464 122.525C70.2361 118.352 67.0164 118.155 66.4579 118.155C66.4579 118.155 66.4579 118.155 66.4415 118.155C66.4415 118.155 66.4415 118.155 66.4251 118.155C66.4251 118.155 66.4251 118.155 66.4086 118.155C66.3922 118.155 66.4086 118.155 66.3922 118.155C65.8337 118.155 62.614 118.352 65.6037 122.525L64.306 126.221L63.9117 124.972L61.0041 115.773C61.0041 115.773 58.7372 117.251 54.9754 118.681C50.8193 120.192 51.0821 123.609 51 130.015H65.6365H66.4251H72.6345H81.8337H90.0637H91.0164H100.15H109.349H114.803H115.591H131C130.984 123.609 131.246 120.192 127.09 118.681Z" fill="#5CC6D5"/>
<path d="M113.587 94.8088C112.963 95.0224 112.388 95.3345 111.862 95.6959C111.222 96.1066 110.63 96.5994 110.088 97.1579C109.25 98.0121 108.495 99.1292 108.183 100.509C107.903 101.544 107.969 102.628 108.199 103.778C108.265 104.123 108.347 104.452 108.478 104.797C107.838 104.731 107.098 105.109 107.805 107.589C108.314 109.413 108.79 109.922 109.152 109.938C109.48 112.107 111.156 114.85 113.883 115.803C115 116.197 116.232 116.197 117.365 115.803C120.059 114.833 121.784 112.09 122.113 109.938C122.474 109.905 122.951 109.396 123.46 107.589C124.166 105.109 123.411 104.731 122.786 104.797C122.901 104.452 123 104.107 123.066 103.778C124.133 97.3386 120.963 97.1251 120.963 97.1251C120.963 97.1251 120.437 96.123 119.057 95.3509C118.137 94.8088 116.84 94.3817 115.131 94.5296C114.606 94.5296 114.08 94.6281 113.587 94.8088Z" fill="#5CC6D5"/>
<path d="M60.002 109.938C60.3305 112.107 62.0061 114.85 64.733 115.803C65.85 116.197 67.082 116.197 68.2155 115.803C70.9096 114.833 72.6344 112.09 72.9629 109.938C73.3243 109.905 73.8007 109.396 74.31 107.589C75.0163 105.109 74.2607 104.731 73.6365 104.797C73.7514 104.452 73.85 104.107 73.9157 103.778C74.9835 97.3386 71.813 97.1251 71.813 97.1251C71.813 97.1251 71.2874 96.123 69.9075 95.3509C68.9876 94.8088 67.6898 94.3817 65.9814 94.5296C65.4229 94.5624 64.9137 94.661 64.4209 94.8253C63.7966 95.0388 63.2217 95.3509 62.7124 95.7123C62.0718 96.123 61.4804 96.6158 60.9383 97.1743C60.1005 98.0285 59.3449 99.1456 59.0328 100.525C58.7535 101.56 58.8192 102.645 59.0492 103.794C59.1149 104.139 59.197 104.468 59.3285 104.813C58.7042 104.747 57.9486 105.125 58.6549 107.606C59.1642 109.396 59.6406 109.905 60.002 109.938Z" fill="#5CC6D5"/>
<path d="M81.7351 103.305C82.3429 105.473 82.9178 106.065 83.3449 106.114C83.7392 108.693 85.7269 111.962 88.9794 113.096C90.31 113.572 91.7885 113.572 93.1191 113.079C96.3224 111.929 98.3757 108.66 98.77 106.098C99.1971 106.065 99.7721 105.457 100.38 103.289C101.218 100.332 100.331 99.8882 99.5749 99.9703C99.7228 99.5596 99.8213 99.149 99.9035 98.7547C101.185 91.0997 97.4065 90.8369 97.4065 90.8369C97.4065 90.8369 96.7823 89.6377 95.1396 88.7178C94.039 88.0607 92.4948 87.5514 90.4743 87.7321C89.8172 87.765 89.193 87.8964 88.618 88.0935C87.8788 88.3399 87.1889 88.7178 86.5811 89.1449C85.8254 89.6212 85.1026 90.2126 84.4784 90.8861C83.4764 91.9046 82.5893 93.2188 82.2115 94.8779C81.8829 96.11 81.9651 97.3913 82.2279 98.7711C82.2936 99.1818 82.4086 99.5761 82.5564 99.9867C81.7844 99.921 80.8973 100.348 81.7351 103.305Z" fill="#5CC6D5"/>
</svg>
