<svg width="183" height="183" viewBox="0 0 183 183" fill="none" xmlns="http://www.w3.org/2000/svg">
<ellipse cx="91.1083" cy="91.5" rx="91.1083" ry="91.5" fill="white"/>
<g clip-path="url(#clip0_550_736)">
<path d="M105.446 67.5H94.7084C93.7084 67.5 92.7459 67.875 92.0084 68.55L79.7209 79.8C79.7084 79.8125 79.6959 79.8375 79.6834 79.85C77.6084 81.8 77.6459 84.9125 79.4209 86.85C81.0084 88.5875 84.3459 89.05 86.4334 87.1875C86.4459 87.175 86.4709 87.175 86.4834 87.1625L96.4709 78.0125C97.2834 77.275 98.5584 77.325 99.2959 78.1375C100.046 78.95 99.9834 80.2125 99.1709 80.9625L95.9084 83.95L114.108 98.725C114.471 99.025 114.796 99.35 115.096 99.6875V75.5L108.271 68.675C107.533 67.925 106.508 67.5 105.446 67.5V67.5ZM119.108 75.525V103.512C119.108 105.725 120.896 107.512 123.108 107.512H131.108V75.525H119.108ZM125.108 103.512C124.008 103.512 123.108 102.612 123.108 101.512C123.108 100.412 124.008 99.5125 125.108 99.5125C126.208 99.5125 127.108 100.412 127.108 101.512C127.108 102.612 126.208 103.512 125.108 103.512ZM51.1084 107.5H59.1084C61.3209 107.5 63.1084 105.712 63.1084 103.5V75.525H51.1084V107.5ZM57.1084 99.5125C58.2084 99.5125 59.1084 100.412 59.1084 101.512C59.1084 102.612 58.2084 103.512 57.1084 103.512C56.0084 103.512 55.1084 102.612 55.1084 101.512C55.1084 100.4 56.0084 99.5125 57.1084 99.5125ZM111.596 101.837L92.9334 86.6875L89.1834 90.125C85.4709 93.5125 79.7834 93.1875 76.4709 89.575C73.1084 85.9 73.3709 80.2125 77.0209 76.8625L87.2459 67.5H76.7709C75.7084 67.5 74.6959 67.925 73.9459 68.675L67.1084 75.5V103.487H69.3959L80.7084 113.725C84.1334 116.512 89.1709 115.987 91.9584 112.562L91.9834 112.537L94.2209 114.475C96.2084 116.1 99.1459 115.787 100.758 113.8L104.683 108.975L105.358 109.525C107.071 110.912 109.596 110.662 110.983 108.937L112.171 107.475C113.571 105.75 113.308 103.237 111.596 101.837V101.837Z" fill="#5CC6D5"/>
</g>
<defs>
<clipPath id="clip0_550_736">
<rect width="80" height="80" fill="white" transform="translate(51.1084 51.5)"/>
</clipPath>
</defs>
</svg>
