<svg width="8" height="13" viewBox="0 0 8 13" fill="none" xmlns="http://www.w3.org/2000/svg">
<path d="M5.41504 5.91406C5.80566 5.52344 6.00098 5.05208 6.00098 4.5C6.00098 3.94792 5.80566 3.47656 5.41504 3.08594C5.02441 2.69531 4.55306 2.5 4.00098 2.5C3.44889 2.5 2.97754 2.69531 2.58691 3.08594C2.19629 3.47656 2.00098 3.94792 2.00098 4.5C2.00098 5.05208 2.19629 5.52344 2.58691 5.91406C2.97754 6.30469 3.44889 6.5 4.00098 6.5C4.55306 6.5 5.02441 6.30469 5.41504 5.91406ZM8.00098 4.5C8.00098 5.06771 7.91504 5.53385 7.74316 5.89844L4.89941 11.9453C4.81608 12.1172 4.69108 12.2526 4.52441 12.3516C4.36296 12.4505 4.18848 12.5 4.00098 12.5C3.81348 12.5 3.63639 12.4505 3.46973 12.3516C3.30827 12.2526 3.18848 12.1172 3.11035 11.9453L0.258789 5.89844C0.0869141 5.53385 0.000976562 5.06771 0.000976562 4.5C0.000976562 3.39583 0.391602 2.45312 1.17285 1.67187C1.9541 0.890624 2.89681 0.499999 4.00098 0.499999C5.10514 0.499999 6.04785 0.890624 6.8291 1.67187C7.61035 2.45312 8.00098 3.39583 8.00098 4.5Z" fill="white"/>
</svg>
