<svg width="11" height="12" viewBox="0 0 11 12" fill="none" xmlns="http://www.w3.org/2000/svg">
<path d="M11 9.1875C11 9.32812 10.974 9.51302 10.9219 9.74219C10.8698 9.96615 10.8151 10.1432 10.7578 10.2734C10.6484 10.5339 10.3307 10.8099 9.80469 11.1016C9.3151 11.3672 8.83073 11.5 8.35156 11.5C8.21094 11.5 8.07292 11.4922 7.9375 11.4766C7.80208 11.4557 7.65104 11.4219 7.48438 11.375C7.32292 11.3281 7.20052 11.2917 7.11719 11.2656C7.03906 11.2344 6.89583 11.1797 6.6875 11.1016C6.47917 11.0234 6.35156 10.9766 6.30469 10.9609C5.79427 10.7786 5.33854 10.5625 4.9375 10.3125C4.27604 9.90104 3.58854 9.33854 2.875 8.625C2.16146 7.91146 1.59896 7.22396 1.1875 6.5625C0.9375 6.16146 0.721354 5.70573 0.539063 5.19531C0.523438 5.14844 0.476563 5.02083 0.398438 4.8125C0.320313 4.60417 0.265625 4.46094 0.234375 4.38281C0.208333 4.29948 0.171875 4.17708 0.125 4.01562C0.078125 3.84896 0.0442708 3.69792 0.0234375 3.5625C0.0078125 3.42708 0 3.28906 0 3.14844C0 2.66927 0.132813 2.1849 0.398438 1.69531C0.690104 1.16927 0.966146 0.851562 1.22656 0.742187C1.35677 0.684895 1.53385 0.630208 1.75781 0.578125C1.98698 0.526041 2.17188 0.499999 2.3125 0.499999C2.38542 0.499999 2.4401 0.507812 2.47656 0.523437C2.57031 0.554687 2.70833 0.752604 2.89063 1.11719C2.94792 1.21615 3.02604 1.35677 3.125 1.53906C3.22396 1.72135 3.3151 1.88802 3.39844 2.03906C3.48177 2.1849 3.5625 2.32292 3.64063 2.45312C3.65625 2.47396 3.70052 2.53906 3.77344 2.64844C3.85156 2.75781 3.90885 2.85156 3.94531 2.92969C3.98177 3.0026 4 3.07552 4 3.14844C4 3.2526 3.92448 3.38281 3.77344 3.53906C3.6276 3.69531 3.46615 3.83854 3.28906 3.96875C3.11719 4.09896 2.95573 4.23698 2.80469 4.38281C2.65885 4.52865 2.58594 4.64844 2.58594 4.74219C2.58594 4.78906 2.59896 4.84896 2.625 4.92187C2.65104 4.98958 2.67188 5.04167 2.6875 5.07812C2.70833 5.11458 2.74479 5.17708 2.79688 5.26562C2.85417 5.35417 2.88542 5.40365 2.89063 5.41406C3.28646 6.1276 3.73958 6.73958 4.25 7.25C4.76042 7.76042 5.3724 8.21354 6.08594 8.60937C6.09635 8.61458 6.14583 8.64583 6.23438 8.70312C6.32292 8.75521 6.38542 8.79167 6.42188 8.8125C6.45833 8.82812 6.51042 8.84896 6.57813 8.875C6.65104 8.90104 6.71094 8.91406 6.75781 8.91406C6.85156 8.91406 6.97135 8.84115 7.11719 8.69531C7.26302 8.54427 7.40104 8.38281 7.53125 8.21094C7.66146 8.03385 7.80469 7.8724 7.96094 7.72656C8.11719 7.57552 8.2474 7.5 8.35156 7.5C8.42448 7.5 8.4974 7.51823 8.57031 7.55469C8.64844 7.59115 8.74219 7.64844 8.85156 7.72656C8.96094 7.79948 9.02604 7.84375 9.04688 7.85937C9.17708 7.9375 9.3151 8.01823 9.46094 8.10156C9.61198 8.1849 9.77865 8.27604 9.96094 8.375C10.1432 8.47396 10.2839 8.55208 10.3828 8.60937C10.7474 8.79167 10.9453 8.92969 10.9766 9.02344C10.9922 9.0599 11 9.11458 11 9.1875Z" fill="white"/>
</svg>
