<svg width="26" height="32" viewBox="0 0 26 32" fill="none" xmlns="http://www.w3.org/2000/svg">
<path d="M16.1673 0.164062H3.50065C2.6608 0.164063 1.85534 0.497692 1.26148 1.09156C0.667614 1.68542 0.333984 2.49088 0.333984 3.33073V28.6641C0.333984 29.5039 0.667614 30.3094 1.26148 30.9032C1.85534 31.4971 2.6608 31.8307 3.50065 31.8307H22.5006C23.3405 31.8307 24.146 31.4971 24.7398 30.9032C25.3337 30.3094 25.6673 29.5039 25.6673 28.6641V9.66406L16.1673 0.164062ZM9.03915 22.6316C8.5499 23.0907 7.8279 23.2966 6.98715 23.2966C6.82413 23.2983 6.66119 23.2888 6.49948 23.2681V25.5259H5.08398V19.2939C5.72279 19.1986 6.36826 19.1552 7.01407 19.1641C7.89598 19.1641 8.52298 19.3319 8.94573 19.6691C9.3479 19.989 9.62023 20.5131 9.62023 21.1306C9.61865 21.7512 9.41282 22.2753 9.03915 22.6316ZM15.0669 24.777C14.4019 25.3296 13.3902 25.5924 12.1536 25.5924C11.4126 25.5924 10.8885 25.5449 10.5322 25.4974V19.2955C11.1713 19.2022 11.8165 19.1583 12.4623 19.1641C13.6609 19.1641 14.4399 19.3794 15.0479 19.8386C15.705 20.3262 16.1166 21.1036 16.1166 22.2199C16.1166 23.428 15.6749 24.2624 15.0669 24.777ZM20.9173 20.3832H18.4916V21.8256H20.759V22.9878H18.4916V25.5275H17.0571V19.2116H20.9173V20.3832ZM16.1673 11.2474H14.584V3.33073L22.5006 11.2474H16.1673Z" fill="#4CBFD0"/>
</svg>
